<mxfile host="65bd71144e">
    <diagram id="ZrKKjEG-7WCRErtOYtB6" name="第 1 页">
        <mxGraphModel dx="4584" dy="1732" grid="1" gridSize="10" guides="1" tooltips="1" connect="1" arrows="1" fold="1" page="1" pageScale="1" pageWidth="1600" pageHeight="900" background="#ffffff" math="0" shadow="0">
            <root>
                <mxCell id="0"/>
                <mxCell id="1" parent="0"/>
                <mxCell id="145" value="" style="group" vertex="1" connectable="0" parent="1">
                    <mxGeometry x="-1600" width="1965" height="455" as="geometry"/>
                </mxCell>
                <mxCell id="21" value="&lt;font style=&quot;font-size: 25px;&quot;&gt;624 blocks&lt;/font&gt;" style="text;html=1;align=center;verticalAlign=middle;resizable=0;points=[];autosize=1;strokeColor=none;fillColor=none;" vertex="1" parent="145">
                    <mxGeometry x="365" width="140" height="40" as="geometry"/>
                </mxCell>
                <mxCell id="31" value="&lt;font style=&quot;font-size: 38px;&quot;&gt;state&lt;/font&gt;" style="text;html=1;align=center;verticalAlign=middle;resizable=0;points=[];autosize=1;strokeColor=none;fillColor=none;" vertex="1" parent="145">
                    <mxGeometry x="380" y="125" width="110" height="60" as="geometry"/>
                </mxCell>
                <mxCell id="89" value="" style="rounded=0;whiteSpace=wrap;html=1;" vertex="1" parent="145">
                    <mxGeometry x="35" y="95" width="90" height="30" as="geometry"/>
                </mxCell>
                <mxCell id="90" value="" style="rounded=0;whiteSpace=wrap;html=1;" vertex="1" parent="145">
                    <mxGeometry x="125" y="95" width="90" height="30" as="geometry"/>
                </mxCell>
                <mxCell id="91" value="" style="rounded=0;whiteSpace=wrap;html=1;" vertex="1" parent="145">
                    <mxGeometry x="215" y="95" width="90" height="30" as="geometry"/>
                </mxCell>
                <mxCell id="92" value="" style="rounded=0;whiteSpace=wrap;html=1;" vertex="1" parent="145">
                    <mxGeometry x="305" y="95" width="270" height="30" as="geometry"/>
                </mxCell>
                <mxCell id="93" value="" style="rounded=0;whiteSpace=wrap;html=1;" vertex="1" parent="145">
                    <mxGeometry x="575" y="95" width="90" height="30" as="geometry"/>
                </mxCell>
                <mxCell id="94" value="" style="rounded=0;whiteSpace=wrap;html=1;" vertex="1" parent="145">
                    <mxGeometry x="665" y="95" width="90" height="30" as="geometry"/>
                </mxCell>
                <mxCell id="95" value="" style="rounded=0;whiteSpace=wrap;html=1;" vertex="1" parent="145">
                    <mxGeometry x="755" y="95" width="90" height="30" as="geometry"/>
                </mxCell>
                <mxCell id="96" value="" style="shape=curlyBracket;whiteSpace=wrap;html=1;rounded=1;labelPosition=left;verticalLabelPosition=middle;align=right;verticalAlign=middle;rotation=90;" vertex="1" parent="145">
                    <mxGeometry x="417.5" y="-357.5" width="45" height="845" as="geometry"/>
                </mxCell>
                <mxCell id="100" style="edgeStyle=none;html=1;fontSize=25;endArrow=classic;endFill=1;strokeWidth=2;" edge="1" parent="145">
                    <mxGeometry relative="1" as="geometry">
                        <mxPoint x="79.28999999999999" y="345" as="targetPoint"/>
                        <mxPoint x="79.28999999999999" y="155" as="sourcePoint"/>
                    </mxGeometry>
                </mxCell>
                <mxCell id="101" style="edgeStyle=none;html=1;fontSize=25;endArrow=classic;endFill=1;strokeWidth=2;" edge="1" parent="145">
                    <mxGeometry relative="1" as="geometry">
                        <mxPoint x="169.28999999999996" y="345" as="targetPoint"/>
                        <mxPoint x="169.28999999999996" y="155" as="sourcePoint"/>
                    </mxGeometry>
                </mxCell>
                <mxCell id="102" style="edgeStyle=none;html=1;fontSize=25;endArrow=classic;endFill=1;strokeWidth=2;" edge="1" parent="145">
                    <mxGeometry relative="1" as="geometry">
                        <mxPoint x="259.28999999999996" y="345" as="targetPoint"/>
                        <mxPoint x="259.28999999999996" y="155" as="sourcePoint"/>
                    </mxGeometry>
                </mxCell>
                <mxCell id="103" style="edgeStyle=none;html=1;fontSize=25;endArrow=classic;endFill=1;strokeWidth=2;" edge="1" parent="145">
                    <mxGeometry relative="1" as="geometry">
                        <mxPoint x="619.29" y="345" as="targetPoint"/>
                        <mxPoint x="619.29" y="155" as="sourcePoint"/>
                    </mxGeometry>
                </mxCell>
                <mxCell id="104" style="edgeStyle=none;html=1;fontSize=25;endArrow=classic;endFill=1;strokeWidth=2;" edge="1" parent="145">
                    <mxGeometry relative="1" as="geometry">
                        <mxPoint x="709.29" y="345" as="targetPoint"/>
                        <mxPoint x="709.29" y="155" as="sourcePoint"/>
                    </mxGeometry>
                </mxCell>
                <mxCell id="105" style="edgeStyle=none;html=1;fontSize=25;endArrow=classic;endFill=1;strokeWidth=2;" edge="1" parent="145">
                    <mxGeometry relative="1" as="geometry">
                        <mxPoint x="799.29" y="345" as="targetPoint"/>
                        <mxPoint x="799.29" y="155" as="sourcePoint"/>
                    </mxGeometry>
                </mxCell>
                <mxCell id="106" value="" style="endArrow=none;dashed=1;html=1;strokeWidth=2;fontSize=30;exitX=0;exitY=0.5;exitDx=0;exitDy=0;entryX=0;entryY=0.5;entryDx=0;entryDy=0;" edge="1" parent="145">
                    <mxGeometry width="50" height="50" relative="1" as="geometry">
                        <mxPoint x="295" y="370" as="sourcePoint"/>
                        <mxPoint x="565" y="370" as="targetPoint"/>
                    </mxGeometry>
                </mxCell>
                <mxCell id="109" value="" style="rounded=0;whiteSpace=wrap;html=1;" vertex="1" parent="145">
                    <mxGeometry x="35" y="365" width="90" height="30" as="geometry"/>
                </mxCell>
                <mxCell id="110" value="" style="rounded=0;whiteSpace=wrap;html=1;" vertex="1" parent="145">
                    <mxGeometry x="125" y="365" width="90" height="30" as="geometry"/>
                </mxCell>
                <mxCell id="111" value="" style="rounded=0;whiteSpace=wrap;html=1;" vertex="1" parent="145">
                    <mxGeometry x="215" y="365" width="90" height="30" as="geometry"/>
                </mxCell>
                <mxCell id="112" value="" style="rounded=0;whiteSpace=wrap;html=1;" vertex="1" parent="145">
                    <mxGeometry x="305" y="365" width="270" height="30" as="geometry"/>
                </mxCell>
                <mxCell id="113" value="" style="rounded=0;whiteSpace=wrap;html=1;" vertex="1" parent="145">
                    <mxGeometry x="575" y="365" width="90" height="30" as="geometry"/>
                </mxCell>
                <mxCell id="114" value="" style="rounded=0;whiteSpace=wrap;html=1;" vertex="1" parent="145">
                    <mxGeometry x="665" y="365" width="90" height="30" as="geometry"/>
                </mxCell>
                <mxCell id="115" value="" style="rounded=0;whiteSpace=wrap;html=1;" vertex="1" parent="145">
                    <mxGeometry x="755" y="365" width="90" height="30" as="geometry"/>
                </mxCell>
                <mxCell id="116" value="" style="endArrow=none;dashed=1;html=1;strokeWidth=2;fontSize=30;exitX=0;exitY=0.5;exitDx=0;exitDy=0;entryX=0;entryY=0.5;entryDx=0;entryDy=0;" edge="1" parent="145" source="112" target="113">
                    <mxGeometry width="50" height="50" relative="1" as="geometry">
                        <mxPoint x="365" y="455" as="sourcePoint"/>
                        <mxPoint x="415" y="405" as="targetPoint"/>
                    </mxGeometry>
                </mxCell>
                <mxCell id="117" value="" style="endArrow=none;dashed=1;html=1;strokeWidth=2;fontSize=30;exitX=0;exitY=0.5;exitDx=0;exitDy=0;entryX=1;entryY=0.5;entryDx=0;entryDy=0;" edge="1" parent="145" source="92" target="92">
                    <mxGeometry width="50" height="50" relative="1" as="geometry">
                        <mxPoint x="315" y="390" as="sourcePoint"/>
                        <mxPoint x="585" y="390" as="targetPoint"/>
                    </mxGeometry>
                </mxCell>
                <mxCell id="118" value="&lt;font style=&quot;font-size: 20px;&quot;&gt;32bits&lt;/font&gt;" style="text;html=1;align=center;verticalAlign=middle;resizable=0;points=[];autosize=1;strokeColor=none;fillColor=none;" vertex="1" parent="145">
                    <mxGeometry x="40" y="65" width="80" height="40" as="geometry"/>
                </mxCell>
                <mxCell id="119" value="&lt;font style=&quot;font-size: 20px;&quot;&gt;32bits&lt;/font&gt;" style="text;html=1;align=center;verticalAlign=middle;resizable=0;points=[];autosize=1;strokeColor=none;fillColor=none;" vertex="1" parent="145">
                    <mxGeometry x="35" y="335" width="80" height="40" as="geometry"/>
                </mxCell>
                <mxCell id="120" value="&lt;font style=&quot;font-size: 36px;&quot;&gt;output&lt;/font&gt;" style="text;html=1;align=center;verticalAlign=middle;resizable=0;points=[];autosize=1;strokeColor=none;fillColor=none;" vertex="1" parent="145">
                    <mxGeometry x="375" y="395" width="120" height="60" as="geometry"/>
                </mxCell>
                <mxCell id="121" value="" style="shape=singleArrow;whiteSpace=wrap;html=1;arrowWidth=0.4;arrowSize=0.4;" vertex="1" parent="145">
                    <mxGeometry x="915" y="85" width="170" height="50" as="geometry"/>
                </mxCell>
                <mxCell id="124" value="&lt;font style=&quot;font-size: 32px;&quot;&gt;cast&lt;/font&gt;" style="text;html=1;align=center;verticalAlign=middle;resizable=0;points=[];autosize=1;strokeColor=none;fillColor=none;" vertex="1" parent="145">
                    <mxGeometry y="215" width="80" height="50" as="geometry"/>
                </mxCell>
                <mxCell id="126" value="&lt;font style=&quot;font-size: 32px;&quot;&gt;Twist&lt;/font&gt;" style="text;html=1;align=center;verticalAlign=middle;resizable=0;points=[];autosize=1;strokeColor=none;fillColor=none;" vertex="1" parent="145">
                    <mxGeometry x="950" y="45" width="100" height="50" as="geometry"/>
                </mxCell>
                <mxCell id="127" value="" style="endArrow=none;dashed=1;html=1;strokeWidth=2;fontSize=30;exitX=0;exitY=0.5;exitDx=0;exitDy=0;entryX=0;entryY=0.5;entryDx=0;entryDy=0;" edge="1" parent="145">
                    <mxGeometry width="50" height="50" relative="1" as="geometry">
                        <mxPoint x="1415" y="100" as="sourcePoint"/>
                        <mxPoint x="1685" y="100" as="targetPoint"/>
                    </mxGeometry>
                </mxCell>
                <mxCell id="128" value="" style="rounded=0;whiteSpace=wrap;html=1;" vertex="1" parent="145">
                    <mxGeometry x="1155" y="95" width="90" height="30" as="geometry"/>
                </mxCell>
                <mxCell id="129" value="" style="rounded=0;whiteSpace=wrap;html=1;" vertex="1" parent="145">
                    <mxGeometry x="1245" y="95" width="90" height="30" as="geometry"/>
                </mxCell>
                <mxCell id="130" value="" style="rounded=0;whiteSpace=wrap;html=1;" vertex="1" parent="145">
                    <mxGeometry x="1335" y="95" width="90" height="30" as="geometry"/>
                </mxCell>
                <mxCell id="131" value="" style="rounded=0;whiteSpace=wrap;html=1;" vertex="1" parent="145">
                    <mxGeometry x="1425" y="95" width="270" height="30" as="geometry"/>
                </mxCell>
                <mxCell id="132" value="" style="rounded=0;whiteSpace=wrap;html=1;" vertex="1" parent="145">
                    <mxGeometry x="1695" y="95" width="90" height="30" as="geometry"/>
                </mxCell>
                <mxCell id="133" value="" style="rounded=0;whiteSpace=wrap;html=1;" vertex="1" parent="145">
                    <mxGeometry x="1785" y="95" width="90" height="30" as="geometry"/>
                </mxCell>
                <mxCell id="134" value="" style="rounded=0;whiteSpace=wrap;html=1;" vertex="1" parent="145">
                    <mxGeometry x="1875" y="95" width="90" height="30" as="geometry"/>
                </mxCell>
                <mxCell id="135" value="" style="endArrow=none;dashed=1;html=1;strokeWidth=2;fontSize=30;exitX=0;exitY=0.5;exitDx=0;exitDy=0;entryX=0;entryY=0.5;entryDx=0;entryDy=0;" edge="1" parent="145" source="131" target="132">
                    <mxGeometry width="50" height="50" relative="1" as="geometry">
                        <mxPoint x="1485" y="185" as="sourcePoint"/>
                        <mxPoint x="1535" y="135" as="targetPoint"/>
                    </mxGeometry>
                </mxCell>
                <mxCell id="136" style="edgeStyle=none;html=1;fontSize=25;endArrow=classic;endFill=1;strokeWidth=2;" edge="1" parent="145">
                    <mxGeometry relative="1" as="geometry">
                        <mxPoint x="1199.29" y="345" as="targetPoint"/>
                        <mxPoint x="1199.29" y="155" as="sourcePoint"/>
                    </mxGeometry>
                </mxCell>
                <mxCell id="137" style="edgeStyle=none;html=1;fontSize=25;endArrow=classic;endFill=1;strokeWidth=2;" edge="1" parent="145">
                    <mxGeometry relative="1" as="geometry">
                        <mxPoint x="1289.29" y="345" as="targetPoint"/>
                        <mxPoint x="1289.29" y="155" as="sourcePoint"/>
                    </mxGeometry>
                </mxCell>
                <mxCell id="138" style="edgeStyle=none;html=1;fontSize=25;endArrow=classic;endFill=1;strokeWidth=2;" edge="1" parent="145">
                    <mxGeometry relative="1" as="geometry">
                        <mxPoint x="1379.29" y="345" as="targetPoint"/>
                        <mxPoint x="1379.29" y="155" as="sourcePoint"/>
                    </mxGeometry>
                </mxCell>
                <mxCell id="139" value="" style="rounded=0;whiteSpace=wrap;html=1;" vertex="1" parent="145">
                    <mxGeometry x="1155" y="365" width="90" height="30" as="geometry"/>
                </mxCell>
                <mxCell id="140" value="" style="rounded=0;whiteSpace=wrap;html=1;" vertex="1" parent="145">
                    <mxGeometry x="1245" y="365" width="90" height="30" as="geometry"/>
                </mxCell>
                <mxCell id="141" value="" style="rounded=0;whiteSpace=wrap;html=1;" vertex="1" parent="145">
                    <mxGeometry x="1335" y="365" width="90" height="30" as="geometry"/>
                </mxCell>
                <mxCell id="144" value="" style="endArrow=none;dashed=1;html=1;strokeWidth=2;fontSize=30;exitX=0;exitY=0.5;exitDx=0;exitDy=0;" edge="1" parent="145">
                    <mxGeometry width="50" height="50" relative="1" as="geometry">
                        <mxPoint x="1425.0000000000005" y="379.72" as="sourcePoint"/>
                        <mxPoint x="1565" y="380" as="targetPoint"/>
                    </mxGeometry>
                </mxCell>
            </root>
        </mxGraphModel>
    </diagram>
</mxfile>